# xmcd
#
# Track frame offsets: 
#        150
#        19035
#        25897
#        45645
#        64713
#        100950
#        118520
#        134088
#        147803
#        162906
#        182136
#        198851
#        219441
#        229351
#        246204
#        267399
#        280632
#        301087
#        329807
#
# Disc length: 4778 seconds
#
# Revision: 1
# Processed by: cddbd v1.5.2PL0 Copyright (c) Steve Scherf et al.
# Submitted via: ExactAudioCopy v1.3
#
DISCID=1812a813
DTITLE=Lightning Hopkins - Akella Presents - Greatest Bluesmen - vol. 
DTITLE=07  CD1
DYEAR=2017
DGENRE=Blues
TTITLE0=Black Gals
TTITLE1=Get It Straight
TTITLE2=So Sorry To Leave You
TTITLE3=The Devil Jumped The Black Man
TTITLE4=Blues Is A Feeling
TTITLE5=Death Bells
TTITLE6=Jackstropper Blues
TTITLE7=I Mean Goodbye
TTITLE8=Business You're Doin'
TTITLE9=Let's Go Sit On The Lawn
TTITLE10=Mean Old Frisco
TTITLE11=Prison Farm Blues
TTITLE12=Take Me Back
TTITLE13=The Twister
TTITLE14=Hello Central
TTITLE15=Mojo Hand
TTITLE16=Roberta
TTITLE17=Katie Mae
TTITLE18=I Learn About The Blues  (Interview December 1964)
EXTD=
EXTT0=
EXTT1=
EXTT2=
EXTT3=
EXTT4=
EXTT5=
EXTT6=
EXTT7=
EXTT8=
EXTT9=
EXTT10=
EXTT11=
EXTT12=
EXTT13=
EXTT14=
EXTT15=
EXTT16=
EXTT17=
EXTT18=
PLAYORDER=
